# xmcd
#
# Track frame offsets:
#        150
#        10375
#        31850
#        42812
#
# Disc length: 718 seconds
#
# Revision: 0
# Processed by: cddbd v1.5.1PL0 Copyright (c) Steve Scherf et al.
# Submitted via: ExactAudioCopy v0.95b1
#
DISCID=2402cc04
DTITLE=Pixies - Head On
DYEAR=1991
DGENRE=Alternative
TTITLE0=Head On
TTITLE1=Motorway To Roswell
TTITLE2=Planet Of Sound (Live)
TTITLE3=Tame (Live)
EXTD=
EXTT0=
EXTT1=
EXTT2=
EXTT3=
PLAYORDER=
